<?xml version="1.0" standalone="no"?>
<!DOCTYPE svg PUBLIC "-//W3C//DTD SVG 20010904//EN"
 "http://www.w3.org/TR/2001/REC-SVG-20010904/DTD/svg10.dtd">
<svg version="1.0" xmlns="http://www.w3.org/2000/svg"
 width="512.000000pt" height="512.000000pt" viewBox="0 0 512.000000 512.000000"
 preserveAspectRatio="xMidYMid meet">
<metadata>
Created by potrace 1.11, written by Peter Selinger 2001-2013
</metadata>
<g transform="translate(0.000000,512.000000) scale(0.100000,-0.100000)"
fill="#000000" stroke="none">
<path d="M1682 4729 c-23 -12 -52 -33 -63 -48 -37 -46 -811 -1342 -819 -1370
-8 -32 6 -69 31 -76 10 -4 78 -6 151 -6 91 0 135 -4 140 -12 6 -9 8 -9 8 1 0
6 8 12 18 12 10 0 24 -6 31 -12 10 -11 11 -9 5 5 -5 15 -3 16 20 7 14 -5 26
-6 26 -2 0 11 94 9 102 -2 5 -7 8 -7 8 1 0 8 9 11 23 9 12 -3 30 -5 40 -5 12
-1 16 -5 11 -13 -5 -8 0 -7 11 2 17 14 17 13 10 -10 -9 -32 -83 -170 -100
-190 -17 -20 -237 -387 -252 -422 -8 -17 -9 -29 -2 -33 5 -4 7 -10 4 -14 -2
-5 4 -16 14 -25 17 -15 41 -17 205 -14 119 2 186 -1 186 -7 0 -6 3 -6 8 1 9
13 64 13 74 -1 5 -6 8 -6 8 2 0 15 99 15 119 -1 11 -8 13 -8 7 1 -5 9 -2 11 8
7 9 -3 16 -8 16 -9 0 -8 -58 -124 -78 -155 -24 -39 -29 -65 -9 -54 7 4 9 3 4
-2 -5 -5 -13 -9 -18 -9 -11 0 -56 -65 -159 -233 -89 -145 -103 -179 -87 -208
16 -30 27 -34 100 -34 64 0 73 -4 68 -32 0 -5 4 -8 10 -8 6 0 8 8 4 19 -5 17
3 18 172 19 124 1 181 -3 192 -11 12 -9 13 -9 7 1 -5 9 5 12 38 12 30 0 46 -4
46 -12 0 -10 3 -9 9 1 5 7 11 9 14 4 4 -6 -4 -30 -18 -54 -13 -24 -30 -58 -39
-74 -8 -17 -24 -39 -35 -49 -12 -11 -21 -24 -21 -31 0 -6 -12 -27 -26 -46 -44
-58 -215 -348 -224 -378 -8 -28 2 -59 24 -73 6 -4 39 -8 74 -8 45 0 61 -3 56
-12 -4 -6 -3 -8 4 -4 5 3 12 3 15 -1 2 -5 2 -2 1 4 -2 9 12 13 47 13 37 0 48
-3 43 -12 -6 -10 -4 -10 7 -1 7 7 19 13 27 13 12 0 12 -3 1 -17 -12 -16 -12
-17 2 -6 9 7 20 9 24 5 5 -4 5 -1 1 6 -4 7 -1 12 9 12 10 0 13 -5 9 -12 -6
-10 -4 -10 7 -2 20 15 229 16 248 1 12 -9 13 -9 7 1 -4 7 -1 12 9 12 9 0 14
-4 11 -9 -4 -5 3 -7 14 -4 17 5 18 2 10 -26 -5 -18 -18 -47 -30 -66 -12 -19
-19 -35 -15 -35 3 0 -5 -10 -18 -23 -25 -22 -269 -423 -286 -468 -11 -33 6
-78 32 -84 12 -3 49 -6 82 -7 44 -2 59 -7 57 -16 -1 -8 2 -11 8 -7 6 3 8 11 5
16 -4 5 1 9 10 9 10 0 14 -5 9 -12 -6 -10 -4 -10 7 -1 7 7 19 13 27 13 12 0
12 -3 1 -17 -12 -16 -12 -17 2 -6 9 7 20 9 24 5 5 -4 5 -1 1 6 -4 7 -1 12 9
12 9 0 14 -4 11 -8 -3 -5 1 -9 9 -9 8 0 12 4 9 8 -3 5 25 8 61 8 46 -1 63 -4
59 -12 -5 -8 -2 -7 7 1 17 16 51 16 68 -1 11 -9 13 -9 7 1 -5 7 -1 12 9 12 10
0 13 -5 9 -12 -5 -8 -3 -8 7 -2 21 13 171 14 188 0 11 -8 13 -8 8 0 -9 16 133
15 152 0 11 -8 13 -8 8 1 -5 8 8 12 48 12 40 0 53 -4 49 -12 -5 -8 -2 -8 7 1
17 16 51 16 68 0 11 -10 13 -10 7 0 -5 7 -1 12 9 12 9 0 14 -4 11 -8 -3 -5 1
-9 9 -9 8 0 12 4 9 8 -3 5 22 8 56 8 38 -1 60 -5 60 -13 0 -7 3 -7 8 2 10 15
92 13 92 -2 0 -8 2 -8 8 0 4 6 23 12 42 13 45 2 62 5 78 14 15 10 16 -5 2 -19
-7 -7 -7 -11 3 -11 7 0 14 9 15 20 0 12 8 25 17 30 10 5 26 20 37 33 12 13 26
21 31 17 6 -3 7 -1 3 5 -10 16 45 112 64 112 13 0 13 1 0 10 -16 10 -13 12 19
14 11 0 23 4 27 8 3 4 -3 6 -15 3 -11 -2 -21 0 -21 6 0 5 4 9 10 9 5 0 9 3 8
7 -4 14 32 73 43 73 8 0 7 -6 -2 -17 -11 -15 -11 -16 1 -6 15 14 23 46 9 37
-5 -3 0 11 12 30 12 20 25 36 31 36 5 0 7 4 3 9 -3 5 1 16 9 24 8 8 12 17 9
21 -4 3 -3 6 2 6 4 0 14 -8 22 -17 8 -10 12 -12 8 -5 -4 7 -1 21 7 30 12 15
11 16 -4 3 -15 -11 -18 -11 -18 2 0 8 7 20 15 27 8 7 12 17 8 23 -4 6 0 8 9 4
12 -4 14 -1 11 14 -3 11 1 21 11 25 9 3 13 10 10 15 -3 5 2 9 10 9 9 0 13 6
10 14 -3 7 2 20 10 29 8 8 13 17 10 19 -2 3 2 11 11 18 8 7 15 18 15 25 0 6 9
20 20 30 10 9 18 22 17 29 -1 6 3 10 8 9 6 -1 12 8 12 19 1 12 6 24 10 27 4 3
14 18 22 33 8 15 18 25 22 22 5 -3 6 3 2 12 -5 14 -3 16 11 11 11 -5 15 -3 10
5 -10 15 37 98 56 98 13 0 13 1 0 10 -16 10 -13 12 19 14 11 0 23 4 27 8 3 4
-3 6 -15 3 -11 -2 -21 0 -21 6 0 5 4 9 10 9 5 0 9 3 8 8 -1 4 4 18 11 31 11
19 15 21 23 10 8 -11 9 -10 4 4 -7 23 42 110 56 100 7 -4 8 -1 4 6 -5 7 3 29
18 51 14 22 26 42 26 45 0 4 13 26 30 50 16 24 30 48 30 54 0 6 5 12 10 12 38
5 56 3 62 -6 4 -5 6 0 5 12 0 12 -6 19 -12 15 -5 -3 -20 -7 -32 -8 -18 -1 -22
3 -17 20 3 13 -3 30 -16 44 l-22 23 -282 -2 c-155 -2 -288 1 -296 6 -9 5 -11
4 -6 -3 4 -7 2 -12 -3 -12 -6 0 -11 4 -11 10 0 5 -6 9 -12 7 -13 -2 -12 33 1
43 3 3 12 18 19 33 7 15 16 26 21 22 5 -3 13 0 17 6 4 8 3 9 -4 5 -18 -11 -14
5 8 42 18 30 23 32 38 20 15 -12 16 -11 4 4 -11 14 -10 22 4 50 9 18 20 35 23
38 3 3 12 17 20 32 8 15 17 25 21 23 4 -3 7 1 6 8 0 6 4 13 9 15 6 1 10 -12
10 -30 0 -19 6 -33 15 -35 9 -3 11 -1 5 4 -6 4 -10 19 -10 33 1 14 -3 30 -7
36 -10 13 0 44 13 44 5 0 8 3 6 8 -1 4 3 7 8 7 6 0 9 -8 9 -17 -1 -10 3 -18 7
-18 8 0 7 28 -2 55 -5 13 72 145 84 145 4 0 5 5 2 10 -3 6 -1 10 6 10 7 0 9 3
6 7 -4 3 1 12 11 20 9 8 11 12 4 8 -9 -5 -11 0 -7 17 4 16 -1 31 -16 47 l-22
23 -272 -5 c-286 -5 -290 -4 -256 37 12 14 12 16 -3 10 -9 -3 -17 -10 -17 -15
-1 -5 -2 -15 -3 -21 -1 -17 -44 -23 -61 -8 -14 11 -9 50 6 50 5 0 8 3 7 8 -3
15 15 42 28 42 8 0 14 5 14 11 0 5 -4 8 -9 4 -6 -3 6 21 25 52 19 32 40 57 45
55 6 -1 8 2 4 7 -3 6 16 45 43 88 26 43 51 87 56 98 6 16 9 17 17 5 7 -11 8
-9 7 10 -2 20 1 24 17 22 16 -2 17 -1 5 7 -13 9 -12 12 5 26 11 9 14 14 8 10
-7 -3 -13 -1 -13 4 0 6 4 11 8 11 5 0 14 12 20 26 8 16 16 22 25 17 15 -9 77
-12 72 -2 -3 3 -18 5 -35 4 -32 -3 -46 8 -35 25 5 8 12 7 23 -2 15 -12 16 -11
3 4 -17 22 -7 55 12 40 10 -8 13 -6 13 7 0 10 -5 17 -11 15 -6 -3 -12 8 -13
22 -4 52 -18 55 -244 51 -140 -2 -211 -7 -221 -15 -11 -10 -17 -9 -27 3 -7 8
-23 15 -37 15 -13 0 -22 4 -19 8 3 5 -1 9 -9 9 -8 0 -12 -4 -9 -9 3 -4 -8 -8
-25 -8 -16 0 -33 5 -36 10 -4 6 -11 8 -16 5 -5 -4 -9 1 -9 9 0 9 8 16 18 16
13 0 14 2 4 9 -11 7 -11 10 0 22 7 8 19 26 27 41 8 15 23 37 33 48 10 11 15
20 11 20 -4 0 3 10 17 21 14 11 19 18 13 14 -22 -11 -14 9 18 43 16 17 27 32
24 32 -4 0 2 12 12 28 31 46 43 66 50 82 3 8 13 19 20 23 7 5 11 12 8 18 -4 5
-1 9 4 9 6 0 11 7 11 15 0 9 7 18 15 21 8 4 12 11 9 16 -4 6 -2 13 3 17 13 8
56 90 60 114 2 10 -9 29 -23 44 l-25 25 -227 -2 c-286 -4 -345 -2 -338 9 4 5
-3 7 -14 4 -11 -3 -20 -1 -20 5 0 19 47 92 54 85 4 -4 4 0 1 9 -4 9 1 21 12
29 10 8 19 20 21 28 1 7 9 20 17 28 8 8 15 20 15 27 0 7 11 25 25 40 14 15 25
32 25 37 0 6 11 27 25 47 14 20 25 42 25 49 0 7 5 13 10 13 6 0 10 7 10 15 0
8 5 15 11 15 5 0 8 -4 5 -8 -3 -5 1 -9 9 -9 11 0 12 4 4 13 -8 9 -3 26 17 61
16 26 32 50 36 51 5 2 5 9 1 14 -4 7 2 9 16 5 17 -4 20 -3 11 8 -10 12 -4 45
9 45 16 0 10 58 -9 78 l-21 22 -692 0 c-684 0 -692 0 -735 -21z"/>
<path d="M3171 4686 c-9 -10 -8 -15 2 -19 8 -3 13 3 13 14 0 23 0 23 -15 5z"/>
<path d="M3236 4687 c3 -10 9 -15 12 -12 3 3 0 11 -7 18 -10 9 -11 8 -5 -6z"/>
<path d="M3251 4647 c-13 -21 -12 -21 5 -5 10 10 16 20 13 22 -3 3 -11 -5 -18
-17z"/>
<path d="M3163 4633 c-10 -10 -13 -14 -6 -10 6 5 16 6 21 3 5 -3 9 1 9 9 0 19
-1 19 -24 -2z"/>
<path d="M3199 4603 c0 -5 -2 -16 -4 -26 -2 -11 -1 -16 3 -13 8 8 14 46 7 46
-3 0 -5 -3 -6 -7z"/>
<path d="M3095 4560 c-3 -5 -1 -10 4 -10 6 0 11 5 11 10 0 6 -2 10 -4 10 -3 0
-8 -4 -11 -10z"/>
<path d="M3190 4520 c0 -5 5 -10 10 -10 6 0 10 5 10 10 0 6 -4 10 -10 10 -5 0
-10 -4 -10 -10z"/>
<path d="M3117 4493 c3 -7 6 -13 8 -13 2 0 5 6 8 13 3 8 -1 14 -8 14 -7 0 -11
-6 -8 -14z"/>
<path d="M3150 4506 c0 -2 7 -7 16 -10 8 -3 12 -2 9 4 -6 10 -25 14 -25 6z"/>
<path d="M3113 4450 c-1 -11 2 -20 5 -20 4 0 8 9 9 20 1 11 -2 20 -5 20 -4 0
-8 -9 -9 -20z"/>
<path d="M3068 4423 c7 -3 16 -2 19 1 4 3 -2 6 -13 5 -11 0 -14 -3 -6 -6z"/>
<path d="M3095 4409 c-4 -6 -5 -12 -2 -15 2 -3 7 2 10 11 7 17 1 20 -8 4z"/>
<path d="M3133 4405 c0 -8 4 -12 9 -9 5 3 6 10 3 15 -9 13 -12 11 -12 -6z"/>
<path d="M3030 4376 c7 -7 13 -7 20 0 6 6 3 10 -10 10 -13 0 -16 -4 -10 -10z"/>
<path d="M3097 4369 c7 -7 15 -10 18 -7 3 3 -2 9 -12 12 -14 6 -15 5 -6 -5z"/>
<path d="M3013 4355 c0 -7 6 -11 14 -8 7 3 13 6 13 8 0 2 -6 5 -13 8 -8 3 -14
-1 -14 -8z"/>
<path d="M3074 4356 c1 -8 5 -18 8 -22 4 -3 5 1 4 10 -1 8 -5 18 -8 22 -4 3
-5 -1 -4 -10z"/>
<path d="M2995 4292 c1 -15 -3 -31 -9 -35 -7 -6 -6 -7 4 -5 14 4 23 55 10 63
-4 2 -6 -8 -5 -23z"/>
<path d="M2950 4278 c0 -4 4 -8 9 -8 6 0 12 4 15 8 3 5 -1 9 -9 9 -8 0 -15 -4
-15 -9z"/>
<path d="M2915 4249 c-4 -6 -5 -12 -2 -15 2 -3 7 2 10 11 7 17 1 20 -8 4z"/>
<path d="M2936 4233 c-6 -14 -5 -15 5 -6 7 7 10 15 7 18 -3 3 -9 -2 -12 -12z"/>
<path d="M2995 4200 c-3 -5 -1 -10 4 -10 6 0 11 5 11 10 0 6 -2 10 -4 10 -3 0
-8 -4 -11 -10z"/>
<path d="M2918 4183 c7 -3 16 -2 19 1 4 3 -2 6 -13 5 -11 0 -14 -3 -6 -6z"/>
<path d="M2856 4153 c-6 -14 -5 -15 5 -6 7 7 10 15 7 18 -3 3 -9 -2 -12 -12z"/>
<path d="M2892 4161 c-11 -7 -11 -9 0 -14 9 -3 15 1 15 9 0 8 -1 14 -1 14 -1
0 -7 -4 -14 -9z"/>
<path d="M2937 4151 c-10 -14 -10 -14 4 -4 9 7 18 10 21 7 3 -3 8 -1 12 4 9
16 -24 9 -37 -7z"/>
<path d="M2931 4113 c7 -12 15 -20 18 -17 3 2 -3 12 -13 22 -17 16 -18 16 -5
-5z"/>
<path d="M2820 4064 c0 -1 6 -7 14 -13 10 -9 15 -8 19 2 3 8 -3 13 -14 13 -11
0 -19 -1 -19 -2z"/>
<path d="M2877 4053 c3 -7 6 -13 8 -13 2 0 5 6 8 13 3 8 -1 14 -8 14 -7 0 -11
-6 -8 -14z"/>
<path d="M2918 4063 c7 -3 16 -2 19 1 4 3 -2 6 -13 5 -11 0 -14 -3 -6 -6z"/>
<path d="M3478 3943 c7 -3 16 -2 19 1 4 3 -2 6 -13 5 -11 0 -14 -3 -6 -6z"/>
<path d="M3514 3943 c3 -4 2 -11 -4 -17 -6 -8 -3 -12 9 -12 12 0 17 5 13 15
-4 10 -1 12 9 6 8 -5 11 -4 6 0 -4 5 -15 10 -23 11 -9 1 -13 0 -10 -3z"/>
<path d="M3460 3925 c0 -2 6 -8 13 -14 10 -8 14 -7 14 2 0 8 -6 14 -14 14 -7
0 -13 -1 -13 -2z"/>
<path d="M3410 3905 c0 -7 30 -13 34 -7 3 4 -4 9 -15 9 -10 1 -19 0 -19 -2z"/>
<path d="M3449 3883 c-13 -16 -12 -17 4 -4 16 13 21 21 13 21 -2 0 -10 -8 -17
-17z"/>
<path d="M3426 3835 c10 -8 23 -15 28 -15 6 0 1 7 -10 15 -10 8 -23 15 -28 15
-6 0 -1 -7 10 -15z"/>
<path d="M3387 3813 c3 -7 6 -13 8 -13 1 0 7 6 13 13 8 10 6 13 -7 13 -11 0
-17 -6 -14 -13z"/>
<path d="M3473 3815 c0 -8 4 -12 9 -9 5 3 6 10 3 15 -9 13 -12 11 -12 -6z"/>
<path d="M3395 3773 c1 -10 -2 -25 -8 -33 -9 -12 -9 -13 3 -3 16 15 24 53 11
53 -5 0 -8 -8 -6 -17z"/>
<path d="M3350 3720 c0 -5 5 -10 10 -10 6 0 10 5 10 10 0 6 -4 10 -10 10 -5 0
-10 -4 -10 -10z"/>
<path d="M3290 3706 c0 -2 7 -7 16 -10 8 -3 12 -2 9 4 -6 10 -25 14 -25 6z"/>
<path d="M3390 3694 c8 -10 15 -20 16 -22 1 -2 4 1 7 5 3 5 -4 15 -16 23 -21
12 -21 12 -7 -6z"/>
<path d="M3309 3663 c-13 -16 -12 -17 3 -5 9 8 23 10 29 6 8 -4 9 -3 5 4 -10
17 -21 15 -37 -5z"/>
<path d="M3270 3656 c0 -2 8 -10 18 -17 15 -13 16 -12 3 4 -13 16 -21 21 -21
13z"/>
<path d="M3240 3600 c-12 -7 -10 -9 8 -7 12 0 22 5 22 9 0 11 -12 10 -30 -2z"/>
<path d="M3353 3595 c0 -8 4 -12 9 -9 4 3 8 9 8 15 0 5 -4 9 -8 9 -5 0 -9 -7
-9 -15z"/>
<path d="M3278 3573 c7 -3 16 -2 19 1 4 3 -2 6 -13 5 -11 0 -14 -3 -6 -6z"/>
<path d="M3251 3532 c-1 -8 -6 -10 -13 -6 -7 4 -10 4 -6 -1 4 -4 2 -15 -4 -24
-9 -11 -6 -10 9 2 12 11 22 14 24 8 2 -6 10 -1 18 11 13 21 13 22 -1 10 -13
-10 -17 -10 -21 0 -4 11 -6 10 -6 0z"/>
<path d="M3281 3477 c-13 -21 -12 -21 5 -5 10 10 16 20 13 22 -3 3 -11 -5 -18
-17z"/>
<path d="M3190 3486 c0 -2 7 -7 16 -10 8 -3 12 -2 9 4 -6 10 -25 14 -25 6z"/>
<path d="M3145 3460 c-3 -6 1 -7 9 -4 18 7 21 14 7 14 -6 0 -13 -4 -16 -10z"/>
<path d="M3187 3453 c4 -10 2 -14 -4 -10 -5 3 -10 0 -10 -8 0 -10 4 -12 12 -5
7 5 15 6 20 2 4 -4 2 3 -4 16 -14 26 -23 30 -14 5z"/>
<path d="M3216 3447 c3 -10 9 -15 12 -12 3 3 0 11 -7 18 -10 9 -11 8 -5 -6z"/>
<path d="M3131 3411 c-19 -12 -22 -38 -5 -38 11 0 11 3 1 16 -10 12 -9 14 4 9
10 -4 16 -1 16 8 0 8 -1 14 -1 14 -1 0 -7 -4 -15 -9z"/>
<path d="M3220 3415 c0 -5 5 -17 10 -25 5 -8 10 -10 10 -5 0 6 -5 17 -10 25
-5 8 -10 11 -10 5z"/>
<path d="M3108 3343 c6 -2 18 -2 25 0 6 3 1 5 -13 5 -14 0 -19 -2 -12 -5z"/>
<path d="M3740 3286 c0 -2 8 -10 18 -17 15 -13 16 -12 3 4 -13 16 -21 21 -21
13z"/>
<path d="M3787 3259 c7 -7 15 -10 18 -7 3 3 -2 9 -12 12 -14 6 -15 5 -6 -5z"/>
<path d="M3785 3220 c-3 -6 1 -7 9 -4 18 7 21 14 7 14 -6 0 -13 -4 -16 -10z"/>
<path d="M3820 3226 c0 -2 9 -6 20 -9 11 -3 18 -1 14 4 -5 9 -34 13 -34 5z"/>
<path d="M1095 3209 c-4 -6 -5 -12 -2 -15 2 -3 7 2 10 11 7 17 1 20 -8 4z"/>
<path d="M1251 3204 c0 -11 3 -14 6 -6 3 7 2 16 -1 19 -3 4 -6 -2 -5 -13z"/>
<path d="M1300 3211 c0 -6 4 -13 10 -16 6 -3 7 1 4 9 -7 18 -14 21 -14 7z"/>
<path d="M3749 3203 c-13 -16 -12 -17 4 -4 16 13 21 21 13 21 -2 0 -10 -8 -17
-17z"/>
<path d="M3819 3193 c-13 -16 -12 -17 4 -4 16 13 21 21 13 21 -2 0 -10 -8 -17
-17z"/>
<path d="M3794 3163 c2 -10 -2 -22 -8 -26 -7 -6 -6 -7 3 -5 16 5 24 35 11 43
-5 3 -7 -3 -6 -12z"/>
<path d="M3717 3107 c-3 -8 1 -14 8 -14 7 0 11 6 8 14 -3 7 -6 13 -8 13 -2 0
-5 -6 -8 -13z"/>
<path d="M3673 3070 c1 -11 5 -20 9 -20 3 0 6 9 5 20 -1 11 -5 20 -9 20 -3 0
-6 -9 -5 -20z"/>
<path d="M3747 3054 c4 -11 3 -15 -5 -10 -6 3 -13 2 -16 -3 -4 -5 2 -8 11 -7
20 3 28 21 14 31 -7 4 -8 0 -4 -11z"/>
<path d="M3630 3041 c0 -6 4 -13 10 -16 6 -3 7 1 4 9 -7 18 -14 21 -14 7z"/>
<path d="M3636 2998 c2 -4 14 -5 26 -3 32 7 32 13 -1 11 -16 0 -27 -4 -25 -8z"/>
<path d="M3685 2982 c-5 -4 -11 -12 -12 -19 -3 -13 22 -12 34 2 5 4 2 5 -6 0
-11 -6 -13 -4 -8 8 7 19 6 20 -8 9z"/>
<path d="M3578 2927 c8 -9 11 -20 8 -25 -3 -5 1 -9 9 -9 16 0 4 31 -18 43 -8
6 -8 3 1 -9z"/>
<path d="M3627 2907 c-3 -7 3 -13 14 -13 13 0 15 3 7 13 -6 7 -12 13 -13 13
-2 0 -5 -6 -8 -13z"/>
<path d="M3630 2870 c-9 -6 -10 -10 -3 -10 6 0 15 5 18 10 8 12 4 12 -15 0z"/>
<path d="M3548 2855 c10 -15 10 -47 0 -70 -8 -18 -8 -19 5 -3 11 14 16 15 27
5 10 -9 10 -7 0 7 -17 22 -20 58 -5 68 5 4 0 6 -12 5 -12 0 -19 -6 -15 -12z"/>
<path d="M3591 2847 c2 -1 13 -9 24 -17 19 -14 19 -14 6 3 -7 9 -18 17 -24 17
-6 0 -8 -1 -6 -3z"/>
<path d="M3587 2819 c7 -7 15 -10 18 -7 3 3 -2 9 -12 12 -14 6 -15 5 -6 -5z"/>
<path d="M3566 2758 c3 -5 10 -6 15 -3 13 9 11 12 -6 12 -8 0 -12 -4 -9 -9z"/>
<path d="M3475 2751 c-3 -5 -2 -12 3 -15 5 -3 9 1 9 9 0 17 -3 19 -12 6z"/>
<path d="M3518 2742 c-14 -6 -13 -9 6 -24 18 -13 23 -13 23 -3 0 8 -5 11 -10
8 -6 -4 -8 0 -4 10 3 10 5 17 4 16 -1 0 -9 -3 -19 -7z"/>
<path d="M3444 2723 c4 -4 16 -8 28 -10 12 -2 19 -1 16 2 -3 3 -16 8 -28 10
-12 2 -20 1 -16 -2z"/>
<path d="M3409 2683 c-13 -16 -12 -17 4 -4 16 13 21 21 13 21 -2 0 -10 -8 -17
-17z"/>
<path d="M3491 2674 c0 -11 3 -14 6 -6 3 7 2 16 -1 19 -3 4 -6 -2 -5 -13z"/>
<path d="M3520 2680 c-9 -6 -10 -10 -3 -10 6 0 15 5 18 10 8 12 4 12 -15 0z"/>
<path d="M4057 2556 c-4 -11 -1 -13 10 -9 10 4 14 2 10 -4 -3 -5 0 -10 8 -10
13 0 12 4 -2 19 -19 22 -19 22 -26 4z"/>
<path d="M4120 2540 c-9 -6 -10 -10 -3 -10 6 0 15 5 18 10 8 12 4 12 -15 0z"/>
<path d="M1295 2489 c-4 -6 -14 -8 -24 -4 -13 5 -14 4 -3 -6 10 -11 15 -10 29
4 10 9 14 17 11 17 -4 0 -10 -5 -13 -11z"/>
<path d="M1336 2487 c3 -10 9 -15 12 -12 3 3 0 11 -7 18 -10 9 -11 8 -5 -6z"/>
<path d="M1381 2484 c0 -11 3 -14 6 -6 3 7 2 16 -1 19 -3 4 -6 -2 -5 -13z"/>
<path d="M1411 2484 c0 -11 3 -14 6 -6 3 7 2 16 -1 19 -3 4 -6 -2 -5 -13z"/>
<path d="M4025 2480 c-3 -6 1 -7 9 -4 18 7 21 14 7 14 -6 0 -13 -4 -16 -10z"/>
<path d="M4106 2463 c-6 -14 -5 -15 5 -6 7 7 10 15 7 18 -3 3 -9 -2 -12 -12z"/>
<path d="M4070 2463 c7 -3 5 -13 -7 -26 -12 -15 -13 -18 -2 -9 9 6 18 9 22 6
3 -3 4 2 3 12 -2 10 -8 19 -15 20 -7 2 -7 1 -1 -3z"/>
<path d="M4036 2407 c3 -10 9 -15 12 -12 3 3 0 11 -7 18 -10 9 -11 8 -5 -6z"/>
<path d="M4000 2400 c-12 -7 -10 -9 7 -7 12 0 19 5 17 9 -6 10 -6 10 -24 -2z"/>
<path d="M4021 2364 c0 -11 3 -14 6 -6 3 7 2 16 -1 19 -3 4 -6 -2 -5 -13z"/>
<path d="M3950 2360 c0 -5 5 -10 11 -10 5 0 7 5 4 10 -3 6 -8 10 -11 10 -2 0
-4 -4 -4 -10z"/>
<path d="M3970 2336 c0 -2 8 -10 18 -17 15 -13 16 -12 3 4 -13 16 -21 21 -21
13z"/>
<path d="M4030 2321 c0 -6 4 -12 8 -15 5 -3 9 1 9 9 0 8 -4 15 -9 15 -4 0 -8
-4 -8 -9z"/>
<path d="M3947 2299 c7 -7 15 -10 18 -7 3 3 -2 9 -12 12 -14 6 -15 5 -6 -5z"/>
<path d="M3988 2293 c7 -3 16 -2 19 1 4 3 -2 6 -13 5 -11 0 -14 -3 -6 -6z"/>
<path d="M3990 2270 c-9 -6 -10 -10 -3 -10 6 0 15 5 18 10 8 12 4 12 -15 0z"/>
<path d="M3956 2233 c-6 -14 -5 -15 5 -6 7 7 10 15 7 18 -3 3 -9 -2 -12 -12z"/>
<path d="M3971 2207 c-8 -10 -7 -14 2 -14 8 0 14 6 14 14 0 7 -1 13 -2 13 -2
0 -8 -6 -14 -13z"/>
<path d="M3915 2200 c-3 -5 -1 -10 4 -10 6 0 11 5 11 10 0 6 -2 10 -4 10 -3 0
-8 -4 -11 -10z"/>
<path d="M3947 2181 c6 -7 9 -20 6 -27 -3 -8 -3 -14 0 -14 14 0 14 30 -1 41
-14 11 -15 11 -5 0z"/>
<path d="M3836 2167 c3 -10 9 -15 12 -12 3 3 0 11 -7 18 -10 9 -11 8 -5 -6z"/>
<path d="M3879 2148 c-1 -2 -2 -19 -3 -39 -2 -24 2 -36 11 -36 7 0 9 5 4 11
-4 6 -7 23 -6 39 2 22 -2 35 -6 25z"/>
<path d="M3795 2120 c-3 -5 -1 -10 4 -10 6 0 11 5 11 10 0 6 -2 10 -4 10 -3 0
-8 -4 -11 -10z"/>
<path d="M3905 2120 c-3 -6 1 -7 9 -4 18 7 21 14 7 14 -6 0 -13 -4 -16 -10z"/>
<path d="M3839 2073 c-1 -5 -1 -12 0 -17 1 -5 -4 -6 -12 -3 -7 3 -14 -1 -14
-9 0 -19 30 -1 33 20 1 9 0 16 -2 16 -2 0 -5 -3 -5 -7z"/>
<path d="M3868 2053 c6 -2 10 -9 7 -14 -4 -5 1 -6 10 -2 13 5 14 7 3 14 -7 5
-17 8 -23 8 -5 0 -4 -3 3 -6z"/>
<path d="M3780 2000 c8 -5 20 -10 25 -10 6 0 3 5 -5 10 -8 5 -19 10 -25 10 -5
0 -3 -5 5 -10z"/>
<path d="M3755 1980 c-16 -7 -17 -9 -3 -9 9 -1 20 4 23 9 7 11 7 11 -20 0z"/>
<path d="M3707 1959 c7 -7 15 -10 18 -7 3 3 -2 9 -12 12 -14 6 -15 5 -6 -5z"/>
<path d="M3781 1954 c0 -11 3 -14 6 -6 3 7 2 16 -1 19 -3 4 -6 -2 -5 -13z"/>
<path d="M3687 1919 c7 -7 15 -10 18 -7 3 3 -2 9 -12 12 -14 6 -15 5 -6 -5z"/>
<path d="M3750 1899 c0 -5 5 -7 10 -4 6 3 10 8 10 11 0 2 -4 4 -10 4 -5 0 -10
-5 -10 -11z"/>
<path d="M1815 1791 c-3 -5 0 -13 6 -17 7 -4 9 -3 5 4 -3 5 0 13 6 15 9 4 10
6 1 6 -6 1 -14 -3 -18 -8z"/>
<path d="M1953 1785 c0 -8 4 -12 9 -9 5 3 6 10 3 15 -9 13 -12 11 -12 -6z"/>
<path d="M1992 1791 c-11 -7 -11 -9 0 -14 9 -3 15 1 15 9 0 8 -1 14 -1 14 -1
0 -7 -4 -14 -9z"/>
<path d="M1730 1779 c0 -5 5 -7 10 -4 6 3 10 8 10 11 0 2 -4 4 -10 4 -5 0 -10
-5 -10 -11z"/>
<path d="M1875 1780 c3 -5 8 -10 11 -10 2 0 4 5 4 10 0 6 -5 10 -11 10 -5 0
-7 -4 -4 -10z"/>
<path d="M4329 1763 c-13 -16 -12 -17 4 -4 9 7 17 15 17 17 0 8 -8 3 -21 -13z"/>
<path d="M4366 1758 c3 -5 10 -6 15 -3 13 9 11 12 -6 12 -8 0 -12 -4 -9 -9z"/>
<path d="M4309 1723 c-13 -16 -12 -17 4 -4 16 13 21 21 13 21 -2 0 -10 -8 -17
-17z"/>
<path d="M4397 1708 c19 -21 31 -25 14 -5 -6 8 -9 16 -6 19 3 2 -2 5 -10 5
-13 0 -13 -3 2 -19z"/>
<path d="M4270 1690 c-6 -11 -8 -20 -6 -20 3 0 10 9 16 20 6 11 8 20 6 20 -3
0 -10 -9 -16 -20z"/>
<path d="M4365 1699 c-4 -6 -14 -8 -24 -4 -13 5 -14 4 -3 -6 10 -11 15 -10 29
4 10 9 14 17 11 17 -4 0 -10 -5 -13 -11z"/>
<path d="M4376 1682 c-2 -4 -1 -14 4 -22 7 -11 9 -9 7 8 -1 24 -3 26 -11 14z"/>
<path d="M4313 1665 c0 -8 4 -15 9 -15 4 0 8 4 8 9 0 6 -4 12 -8 15 -5 3 -9
-1 -9 -9z"/>
<path d="M4273 1614 c20 -24 48 -28 39 -5 -4 11 -7 11 -10 2 -3 -9 -10 -7 -26
6 -21 18 -21 18 -3 -3z"/>
<path d="M4337 1609 c7 -7 15 -10 18 -7 3 3 -2 9 -12 12 -14 6 -15 5 -6 -5z"/>
<path d="M4250 1601 c0 -6 4 -13 10 -16 6 -3 7 1 4 9 -7 18 -14 21 -14 7z"/>
<path d="M4228 1573 c7 -3 16 -2 19 1 4 3 -2 6 -13 5 -11 0 -14 -3 -6 -6z"/>
<path d="M4293 1565 c0 -7 6 -11 14 -8 7 3 13 6 13 8 0 2 -6 5 -13 8 -8 3 -14
-1 -14 -8z"/>
<path d="M4205 1539 c-4 -6 -5 -12 -2 -15 2 -3 7 2 10 11 7 17 1 20 -8 4z"/>
<path d="M4306 1542 c-3 -5 1 -9 9 -9 8 0 12 4 9 9 -3 4 -7 8 -9 8 -2 0 -6 -4
-9 -8z"/>
<path d="M4235 1520 c3 -5 8 -10 11 -10 2 0 4 5 4 10 0 6 -5 10 -11 10 -5 0
-7 -4 -4 -10z"/>
<path d="M4173 1477 c-1 -12 1 -17 5 -12 10 16 51 12 62 -5 6 -9 10 -10 10 -3
0 14 -19 28 -40 28 -8 0 -20 3 -25 7 -6 4 -12 -3 -12 -15z"/>
<path d="M4210 1456 c0 -2 8 -10 18 -17 15 -13 16 -12 3 4 -13 16 -21 21 -21
13z"/>
<path d="M4120 1439 c0 -4 6 -9 13 -12 8 -3 14 0 14 7 0 7 -6 13 -14 13 -7 0
-13 -4 -13 -8z"/>
<path d="M4173 1434 c0 -11 3 -11 16 -1 12 10 14 9 9 -4 -4 -9 -1 -16 8 -16 9
0 10 5 5 15 -11 20 -38 24 -38 6z"/>
<path d="M4153 1375 c0 -8 4 -12 9 -9 4 3 8 9 8 15 0 5 -4 9 -8 9 -5 0 -9 -7
-9 -15z"/>
<path d="M4216 1373 c-6 -14 -5 -15 5 -6 7 7 10 15 7 18 -3 3 -9 -2 -12 -12z"/>
<path d="M4150 1318 c0 -4 4 -8 9 -8 6 0 12 4 15 8 3 5 -1 9 -9 9 -8 0 -15 -4
-15 -9z"/>
<path d="M4078 1303 c7 -3 16 -2 19 1 4 3 -2 6 -13 5 -11 0 -14 -3 -6 -6z"/>
<path d="M4055 1279 c-3 -4 2 -6 10 -5 21 3 28 13 10 13 -9 0 -18 -4 -20 -8z"/>
<path d="M4099 1273 c-13 -16 -12 -17 4 -4 9 7 17 15 17 17 0 8 -8 3 -21 -13z"/>
<path d="M4117 1256 c-4 -9 -15 -13 -28 -11 -12 2 -19 2 -15 -2 3 -3 0 -13 -6
-22 -10 -12 -7 -12 8 2 11 9 23 15 26 12 3 -3 11 1 18 10 7 9 11 18 8 21 -3 3
-8 -2 -11 -10z"/>
<path d="M4051 1244 c0 -11 3 -14 6 -6 3 7 2 16 -1 19 -3 4 -6 -2 -5 -13z"/>
<path d="M4026 1182 c6 -4 10 -22 8 -40 -1 -19 0 -31 3 -28 3 3 7 16 7 28 1
13 5 28 8 33 4 6 -3 12 -15 12 -12 1 -17 -1 -11 -5z"/>
<path d="M3978 1168 c8 -9 11 -21 8 -27 -7 -11 20 -8 31 4 5 4 2 5 -6 0 -11
-6 -13 -4 -7 11 4 10 4 15 0 11 -4 -4 -14 -1 -23 6 -14 10 -14 10 -3 -5z"/>
<path d="M3955 1083 c1 -16 -5 -37 -14 -48 -15 -18 -15 -19 0 -7 9 6 18 10 21
7 2 -3 4 11 3 30 0 18 -3 36 -6 40 -3 3 -5 -7 -4 -22z"/>
<path d="M3997 1072 c-15 -16 -15 -19 -2 -19 8 0 13 3 10 5 -3 3 0 11 6 19 17
20 5 16 -14 -5z"/>
<path d="M1873 1065 c0 -8 4 -12 9 -9 5 3 6 10 3 15 -9 13 -12 11 -12 -6z"/>
<path d="M1910 1070 c-9 -6 -10 -10 -3 -10 6 0 15 5 18 10 8 12 4 12 -15 0z"/>
<path d="M2115 1070 c-3 -5 -1 -10 4 -10 6 0 11 5 11 10 0 6 -2 10 -4 10 -3 0
-8 -4 -11 -10z"/>
<path d="M2180 1066 c0 -2 7 -6 15 -10 8 -3 15 -1 15 4 0 6 -7 10 -15 10 -8 0
-15 -2 -15 -4z"/>
<path d="M3906 1062 c-3 -5 1 -9 9 -9 8 0 12 4 9 9 -3 4 -7 8 -9 8 -2 0 -6 -4
-9 -8z"/>
<path d="M3958 1013 c7 -3 16 -2 19 1 4 3 -2 6 -13 5 -11 0 -14 -3 -6 -6z"/>
<path d="M3855 999 c-3 -4 2 -6 10 -5 21 3 28 13 10 13 -9 0 -18 -4 -20 -8z"/>
<path d="M3919 1003 c0 -5 -2 -18 -5 -29 -2 -13 4 -28 14 -35 15 -12 16 -12 5
2 -7 8 -10 27 -7 42 2 15 2 27 -1 27 -3 0 -5 -3 -6 -7z"/>
<path d="M3861 954 c0 -11 3 -14 6 -6 3 7 2 16 -1 19 -3 4 -6 -2 -5 -13z"/>
<path d="M3890 921 c0 -6 4 -13 10 -16 6 -3 7 1 4 9 -7 18 -14 21 -14 7z"/>
<path d="M3828 903 c7 -3 16 -2 19 1 4 3 -2 6 -13 5 -11 0 -14 -3 -6 -6z"/>
<path d="M3795 881 c-3 -5 -2 -12 3 -15 5 -3 9 1 9 9 0 17 -3 19 -12 6z"/>
<path d="M3900 886 c0 -2 8 -10 18 -17 15 -13 16 -12 3 4 -13 16 -21 21 -21
13z"/>
<path d="M3835 861 c-3 -5 -2 -12 3 -15 5 -3 9 1 9 9 0 17 -3 19 -12 6z"/>
<path d="M3867 853 c3 -7 6 -13 8 -13 1 0 7 6 13 13 8 10 6 13 -7 13 -11 0
-17 -6 -14 -13z"/>
<path d="M3748 772 c3 -9 1 -13 -5 -9 -5 3 -10 0 -10 -8 0 -17 14 -10 26 14 7
13 6 18 -4 18 -7 0 -11 -7 -7 -15z"/>
<path d="M3780 784 c0 -1 6 -7 14 -13 10 -9 15 -8 19 2 3 8 -3 13 -14 13 -11
0 -19 -1 -19 -2z"/>
<path d="M3790 743 c0 -5 5 -15 10 -23 7 -12 9 -10 7 8 -1 19 -17 33 -17 15z"/>
<path d="M3708 712 c-3 -11 0 -19 7 -19 8 0 11 7 7 16 -5 14 -4 14 14 1 18
-14 18 -14 5 3 -17 22 -27 22 -33 -1z"/>
<path d="M3753 670 c-1 -11 2 -20 5 -20 4 0 8 9 9 20 1 11 -2 20 -5 20 -4 0
-8 -9 -9 -20z"/>
<path d="M3685 659 c-4 -6 -14 -8 -22 -5 -8 3 -12 2 -8 -3 3 -5 0 -11 -7 -13
-7 -3 -4 -7 7 -12 11 -4 16 -4 13 0 -4 3 3 15 15 25 12 10 19 18 15 19 -4 0
-10 -5 -13 -11z"/>
<path d="M3696 633 c-6 -14 -5 -15 5 -6 7 7 10 15 7 18 -3 3 -9 -2 -12 -12z"/>
<path d="M3717 627 c-3 -8 1 -14 8 -14 7 0 11 6 8 14 -3 7 -6 13 -8 13 -2 0
-5 -6 -8 -13z"/>
<path d="M3673 575 c0 -8 4 -12 9 -9 4 3 8 9 8 15 0 5 -4 9 -8 9 -5 0 -9 -7
-9 -15z"/>
<path d="M3736 573 c-6 -14 -5 -15 5 -6 7 7 10 15 7 18 -3 3 -9 -2 -12 -12z"/>
<path d="M3670 518 c0 -4 4 -8 9 -8 6 0 12 4 15 8 3 5 -1 9 -9 9 -8 0 -15 -4
-15 -9z"/>
<path d="M3598 503 c7 -3 16 -2 19 1 4 3 -2 6 -13 5 -11 0 -14 -3 -6 -6z"/>
<path d="M3599 483 c0 -5 -3 -19 -5 -32 -2 -14 -2 -22 1 -19 8 8 17 58 10 58
-3 0 -5 -3 -6 -7z"/>
<path d="M3650 480 c0 -5 5 -10 11 -10 5 0 7 5 4 10 -3 6 -8 10 -11 10 -2 0
-4 -4 -4 -10z"/>
<path d="M3635 440 c-3 -5 -1 -10 4 -10 6 0 11 5 11 10 0 6 -2 10 -4 10 -3 0
-8 -4 -11 -10z"/>
<path d="M3513 424 c0 -8 10 -22 21 -31 21 -18 21 -18 3 3 -13 16 -15 23 -6
26 9 3 9 6 -2 10 -10 4 -16 1 -16 -8z"/>
<path d="M3550 426 c0 -2 7 -7 16 -10 8 -3 12 -2 9 4 -6 10 -25 14 -25 6z"/>
<path d="M3617 405 c3 -8 9 -12 14 -9 12 7 11 11 -5 17 -10 4 -13 1 -9 -8z"/>
<path d="M3587 379 c7 -7 15 -10 18 -7 3 3 -2 9 -12 12 -14 6 -15 5 -6 -5z"/>
<path d="M3541 356 c-9 -11 -9 -16 0 -22 7 -4 9 -3 5 4 -3 6 2 15 11 21 10 6
13 11 7 11 -6 0 -17 -6 -23 -14z"/>
<path d="M2595 350 c-3 -5 -1 -10 4 -10 6 0 11 5 11 10 0 6 -2 10 -4 10 -3 0
-8 -4 -11 -10z"/>
<path d="M2675 351 c-3 -5 -2 -12 3 -15 5 -3 9 1 9 9 0 17 -3 19 -12 6z"/>
<path d="M2755 350 c-3 -5 -1 -10 4 -10 6 0 11 5 11 10 0 6 -2 10 -4 10 -3 0
-8 -4 -11 -10z"/>
<path d="M2835 351 c-3 -5 -2 -12 3 -15 5 -3 9 1 9 9 0 17 -3 19 -12 6z"/>
<path d="M2310 339 c0 -5 5 -7 10 -4 6 3 10 8 10 11 0 2 -4 4 -10 4 -5 0 -10
-5 -10 -11z"/>
<path d="M2340 346 c0 -2 7 -6 15 -10 8 -3 15 -1 15 4 0 6 -7 10 -15 10 -8 0
-15 -2 -15 -4z"/>
<path d="M2430 339 c0 -5 5 -7 10 -4 6 3 10 8 10 11 0 2 -4 4 -10 4 -5 0 -10
-5 -10 -11z"/>
<path d="M2900 346 c0 -2 7 -6 15 -10 8 -3 15 -1 15 4 0 6 -7 10 -15 10 -8 0
-15 -2 -15 -4z"/>
<path d="M2990 339 c0 -5 5 -7 10 -4 6 3 10 8 10 11 0 2 -4 4 -10 4 -5 0 -10
-5 -10 -11z"/>
<path d="M3110 339 c0 -5 5 -7 10 -4 6 3 10 8 10 11 0 2 -4 4 -10 4 -5 0 -10
-5 -10 -11z"/>
<path d="M3140 346 c0 -2 7 -6 15 -10 8 -3 15 -1 15 4 0 6 -7 10 -15 10 -8 0
-15 -2 -15 -4z"/>
<path d="M3230 339 c0 -5 5 -7 10 -4 6 3 10 8 10 11 0 2 -4 4 -10 4 -5 0 -10
-5 -10 -11z"/>
<path d="M3260 346 c0 -2 7 -6 15 -10 8 -3 15 -1 15 4 0 6 -7 10 -15 10 -8 0
-15 -2 -15 -4z"/>
<path d="M3350 339 c0 -5 5 -7 10 -4 6 3 10 8 10 11 0 2 -4 4 -10 4 -5 0 -10
-5 -10 -11z"/>
<path d="M3470 339 c0 -5 5 -7 10 -4 6 3 10 8 10 11 0 2 -4 4 -10 4 -5 0 -10
-5 -10 -11z"/>
</g>
</svg>
